G04 #@! TF.GenerationSoftware,KiCad,Pcbnew,6.0.2+dfsg-1*
G04 #@! TF.CreationDate,2025-08-24T00:36:07+02:00*
G04 #@! TF.ProjectId,DIP40-TO-2x20,44495034-302d-4544-9f2d-327832302e6b,rev?*
G04 #@! TF.SameCoordinates,Original*
G04 #@! TF.FileFunction,Copper,L1,Top*
G04 #@! TF.FilePolarity,Positive*
%FSLAX46Y46*%
G04 Gerber Fmt 4.6, Leading zero omitted, Abs format (unit mm)*
G04 Created by KiCad (PCBNEW 6.0.2+dfsg-1) date 2025-08-24 00:36:07*
%MOMM*%
%LPD*%
G01*
G04 APERTURE LIST*
G04 #@! TA.AperFunction,ComponentPad*
%ADD10R,1.700000X1.700000*%
G04 #@! TD*
G04 #@! TA.AperFunction,ComponentPad*
%ADD11O,1.700000X1.700000*%
G04 #@! TD*
G04 #@! TA.AperFunction,ComponentPad*
%ADD12R,2.400000X1.600000*%
G04 #@! TD*
G04 #@! TA.AperFunction,ComponentPad*
%ADD13O,2.400000X1.600000*%
G04 #@! TD*
G04 #@! TA.AperFunction,Conductor*
%ADD14C,0.635000*%
G04 #@! TD*
G04 APERTURE END LIST*
D10*
X39365000Y-25400000D03*
D11*
X41905000Y-25400000D03*
X39365000Y-27940000D03*
X41905000Y-27940000D03*
X39365000Y-30480000D03*
X41905000Y-30480000D03*
X39365000Y-33020000D03*
X41905000Y-33020000D03*
X39365000Y-35560000D03*
X41905000Y-35560000D03*
X39365000Y-38100000D03*
X41905000Y-38100000D03*
X39365000Y-40640000D03*
X41905000Y-40640000D03*
X39365000Y-43180000D03*
X41905000Y-43180000D03*
X39365000Y-45720000D03*
X41905000Y-45720000D03*
X39365000Y-48260000D03*
X41905000Y-48260000D03*
X39365000Y-50800000D03*
X41905000Y-50800000D03*
X39365000Y-53340000D03*
X41905000Y-53340000D03*
X39365000Y-55880000D03*
X41905000Y-55880000D03*
X39365000Y-58420000D03*
X41905000Y-58420000D03*
X39365000Y-60960000D03*
X41905000Y-60960000D03*
X39365000Y-63500000D03*
X41905000Y-63500000D03*
X39365000Y-66040000D03*
X41905000Y-66040000D03*
X39365000Y-68580000D03*
X41905000Y-68580000D03*
X39365000Y-71120000D03*
X41905000Y-71120000D03*
X39365000Y-73660000D03*
X41905000Y-73660000D03*
D12*
X33015000Y-25400000D03*
D13*
X33015000Y-27940000D03*
X33015000Y-30480000D03*
X33015000Y-33020000D03*
X33015000Y-35560000D03*
X33015000Y-38100000D03*
X33015000Y-40640000D03*
X33015000Y-43180000D03*
X33015000Y-45720000D03*
X33015000Y-48260000D03*
X33015000Y-50800000D03*
X33015000Y-53340000D03*
X33015000Y-55880000D03*
X33015000Y-58420000D03*
X33015000Y-60960000D03*
X33015000Y-63500000D03*
X33015000Y-66040000D03*
X33015000Y-68580000D03*
X33015000Y-71120000D03*
X33015000Y-73660000D03*
X48255000Y-73660000D03*
X48255000Y-71120000D03*
X48255000Y-68580000D03*
X48255000Y-66040000D03*
X48255000Y-63500000D03*
X48255000Y-60960000D03*
X48255000Y-58420000D03*
X48255000Y-55880000D03*
X48255000Y-53340000D03*
X48255000Y-50800000D03*
X48255000Y-48260000D03*
X48255000Y-45720000D03*
X48255000Y-43180000D03*
X48255000Y-40640000D03*
X48255000Y-38100000D03*
X48255000Y-35560000D03*
X48255000Y-33020000D03*
X48255000Y-30480000D03*
X48255000Y-27940000D03*
X48255000Y-25400000D03*
D14*
X33015000Y-25400000D02*
X39365000Y-25400000D01*
X33015000Y-27940000D02*
X39365000Y-27940000D01*
X33015000Y-30480000D02*
X39365000Y-30480000D01*
X33015000Y-33020000D02*
X39365000Y-33020000D01*
X33015000Y-35560000D02*
X39365000Y-35560000D01*
X33015000Y-38100000D02*
X39365000Y-38100000D01*
X33015000Y-40640000D02*
X39365000Y-40640000D01*
X33015000Y-43180000D02*
X39365000Y-43180000D01*
X33015000Y-45720000D02*
X39365000Y-45720000D01*
X33015000Y-48260000D02*
X39365000Y-48260000D01*
X33015000Y-50800000D02*
X39365000Y-50800000D01*
X33015000Y-53340000D02*
X39365000Y-53340000D01*
X33015000Y-55880000D02*
X39365000Y-55880000D01*
X33015000Y-58420000D02*
X39365000Y-58420000D01*
X33015000Y-60960000D02*
X39365000Y-60960000D01*
X33015000Y-63500000D02*
X39365000Y-63500000D01*
X33015000Y-66040000D02*
X39365000Y-66040000D01*
X33015000Y-68580000D02*
X39365000Y-68580000D01*
X33015000Y-71120000D02*
X39365000Y-71120000D01*
X33015000Y-73660000D02*
X39365000Y-73660000D01*
X41905000Y-73660000D02*
X48255000Y-73660000D01*
X41905000Y-71120000D02*
X48255000Y-71120000D01*
X41905000Y-68580000D02*
X48255000Y-68580000D01*
X41905000Y-66040000D02*
X48255000Y-66040000D01*
X41905000Y-63500000D02*
X48255000Y-63500000D01*
X41905000Y-60960000D02*
X48255000Y-60960000D01*
X41905000Y-58420000D02*
X48255000Y-58420000D01*
X41905000Y-55880000D02*
X48255000Y-55880000D01*
X41905000Y-53340000D02*
X48255000Y-53340000D01*
X41905000Y-50800000D02*
X48255000Y-50800000D01*
X41905000Y-48260000D02*
X48255000Y-48260000D01*
X41905000Y-45720000D02*
X48255000Y-45720000D01*
X41905000Y-43180000D02*
X48255000Y-43180000D01*
X41905000Y-40640000D02*
X48255000Y-40640000D01*
X41905000Y-38100000D02*
X48255000Y-38100000D01*
X41905000Y-35560000D02*
X48255000Y-35560000D01*
X41905000Y-33020000D02*
X48255000Y-33020000D01*
X41905000Y-30480000D02*
X48255000Y-30480000D01*
X41905000Y-27940000D02*
X48255000Y-27940000D01*
X41905000Y-25400000D02*
X48255000Y-25400000D01*
M02*
