M48
; DRILL file {KiCad 6.0.2+dfsg-1} date Sun 24 Aug 2025 12:36:30 AM CEST
; FORMAT={-:-/ absolute / metric / decimal}
; #@! TF.CreationDate,2025-08-24T00:36:30+02:00
; #@! TF.GenerationSoftware,Kicad,Pcbnew,6.0.2+dfsg-1
; #@! TF.FileFunction,Plated,1,2,PTH
FMAT,2
METRIC
; #@! TA.AperFunction,Plated,PTH,ComponentDrill
T1C0.800
; #@! TA.AperFunction,Plated,PTH,ComponentDrill
T2C1.000
%
G90
G05
T1
X33.015Y-25.4
X33.015Y-27.94
X33.015Y-30.48
X33.015Y-33.02
X33.015Y-35.56
X33.015Y-38.1
X33.015Y-40.64
X33.015Y-43.18
X33.015Y-45.72
X33.015Y-48.26
X33.015Y-50.8
X33.015Y-53.34
X33.015Y-55.88
X33.015Y-58.42
X33.015Y-60.96
X33.015Y-63.5
X33.015Y-66.04
X33.015Y-68.58
X33.015Y-71.12
X33.015Y-73.66
X48.255Y-25.4
X48.255Y-27.94
X48.255Y-30.48
X48.255Y-33.02
X48.255Y-35.56
X48.255Y-38.1
X48.255Y-40.64
X48.255Y-43.18
X48.255Y-45.72
X48.255Y-48.26
X48.255Y-50.8
X48.255Y-53.34
X48.255Y-55.88
X48.255Y-58.42
X48.255Y-60.96
X48.255Y-63.5
X48.255Y-66.04
X48.255Y-68.58
X48.255Y-71.12
X48.255Y-73.66
T2
X39.365Y-25.4
X39.365Y-27.94
X39.365Y-30.48
X39.365Y-33.02
X39.365Y-35.56
X39.365Y-38.1
X39.365Y-40.64
X39.365Y-43.18
X39.365Y-45.72
X39.365Y-48.26
X39.365Y-50.8
X39.365Y-53.34
X39.365Y-55.88
X39.365Y-58.42
X39.365Y-60.96
X39.365Y-63.5
X39.365Y-66.04
X39.365Y-68.58
X39.365Y-71.12
X39.365Y-73.66
X41.905Y-25.4
X41.905Y-27.94
X41.905Y-30.48
X41.905Y-33.02
X41.905Y-35.56
X41.905Y-38.1
X41.905Y-40.64
X41.905Y-43.18
X41.905Y-45.72
X41.905Y-48.26
X41.905Y-50.8
X41.905Y-53.34
X41.905Y-55.88
X41.905Y-58.42
X41.905Y-60.96
X41.905Y-63.5
X41.905Y-66.04
X41.905Y-68.58
X41.905Y-71.12
X41.905Y-73.66
T0
M30
