M48
; DRILL file {KiCad 6.0.2+dfsg-1} date Sun 24 Aug 2025 12:39:25 AM CEST
; FORMAT={-:-/ absolute / metric / decimal}
; #@! TF.CreationDate,2025-08-24T00:39:25+02:00
; #@! TF.GenerationSoftware,Kicad,Pcbnew,6.0.2+dfsg-1
; #@! TF.FileFunction,Plated,1,2,PTH
FMAT,2
METRIC
; #@! TA.AperFunction,Plated,PTH,ComponentDrill
T1C0.800
; #@! TA.AperFunction,Plated,PTH,ComponentDrill
T2C1.000
%
G90
G05
T1
X86.36Y-54.61
X86.36Y-57.15
X86.36Y-59.69
X86.36Y-62.23
X86.36Y-64.77
X86.36Y-67.31
X86.36Y-69.85
X86.36Y-72.39
X93.98Y-54.61
X93.98Y-57.15
X93.98Y-59.69
X93.98Y-62.23
X93.98Y-64.77
X93.98Y-67.31
X93.98Y-69.85
X93.98Y-72.39
T2
X88.9Y-54.61
X88.9Y-57.15
X88.9Y-59.69
X88.9Y-62.23
X88.9Y-64.77
X88.9Y-67.31
X88.9Y-69.85
X88.9Y-72.39
X91.44Y-54.61
X91.44Y-57.15
X91.44Y-59.69
X91.44Y-62.23
X91.44Y-64.77
X91.44Y-67.31
X91.44Y-69.85
X91.44Y-72.39
T0
M30
