G04 #@! TF.GenerationSoftware,KiCad,Pcbnew,6.0.2+dfsg-1*
G04 #@! TF.CreationDate,2025-08-24T00:36:08+02:00*
G04 #@! TF.ProjectId,DIP40-TO-2x20,44495034-302d-4544-9f2d-327832302e6b,rev?*
G04 #@! TF.SameCoordinates,Original*
G04 #@! TF.FileFunction,Legend,Top*
G04 #@! TF.FilePolarity,Positive*
%FSLAX46Y46*%
G04 Gerber Fmt 4.6, Leading zero omitted, Abs format (unit mm)*
G04 Created by KiCad (PCBNEW 6.0.2+dfsg-1) date 2025-08-24 00:36:08*
%MOMM*%
%LPD*%
G01*
G04 APERTURE LIST*
%ADD10C,0.150000*%
%ADD11C,0.120000*%
%ADD12R,1.700000X1.700000*%
%ADD13O,1.700000X1.700000*%
%ADD14R,2.400000X1.600000*%
%ADD15O,2.400000X1.600000*%
G04 APERTURE END LIST*
D10*
X44799285Y-25185714D02*
X44799285Y-25852380D01*
X44561190Y-24804761D02*
X44323095Y-25519047D01*
X44942142Y-25519047D01*
X45513571Y-24852380D02*
X45608809Y-24852380D01*
X45704047Y-24900000D01*
X45751666Y-24947619D01*
X45799285Y-25042857D01*
X45846904Y-25233333D01*
X45846904Y-25471428D01*
X45799285Y-25661904D01*
X45751666Y-25757142D01*
X45704047Y-25804761D01*
X45608809Y-25852380D01*
X45513571Y-25852380D01*
X45418333Y-25804761D01*
X45370714Y-25757142D01*
X45323095Y-25661904D01*
X45275476Y-25471428D01*
X45275476Y-25233333D01*
X45323095Y-25042857D01*
X45370714Y-24947619D01*
X45418333Y-24900000D01*
X45513571Y-24852380D01*
X36480714Y-25852380D02*
X35909285Y-25852380D01*
X36195000Y-25852380D02*
X36195000Y-24852380D01*
X36099761Y-24995238D01*
X36004523Y-25090476D01*
X35909285Y-25138095D01*
X35433095Y-73207619D02*
X35480714Y-73160000D01*
X35575952Y-73112380D01*
X35814047Y-73112380D01*
X35909285Y-73160000D01*
X35956904Y-73207619D01*
X36004523Y-73302857D01*
X36004523Y-73398095D01*
X35956904Y-73540952D01*
X35385476Y-74112380D01*
X36004523Y-74112380D01*
X36623571Y-73112380D02*
X36718809Y-73112380D01*
X36814047Y-73160000D01*
X36861666Y-73207619D01*
X36909285Y-73302857D01*
X36956904Y-73493333D01*
X36956904Y-73731428D01*
X36909285Y-73921904D01*
X36861666Y-74017142D01*
X36814047Y-74064761D01*
X36718809Y-74112380D01*
X36623571Y-74112380D01*
X36528333Y-74064761D01*
X36480714Y-74017142D01*
X36433095Y-73921904D01*
X36385476Y-73731428D01*
X36385476Y-73493333D01*
X36433095Y-73302857D01*
X36480714Y-73207619D01*
X36528333Y-73160000D01*
X36623571Y-73112380D01*
X44323095Y-73207619D02*
X44370714Y-73160000D01*
X44465952Y-73112380D01*
X44704047Y-73112380D01*
X44799285Y-73160000D01*
X44846904Y-73207619D01*
X44894523Y-73302857D01*
X44894523Y-73398095D01*
X44846904Y-73540952D01*
X44275476Y-74112380D01*
X44894523Y-74112380D01*
X45846904Y-74112380D02*
X45275476Y-74112380D01*
X45561190Y-74112380D02*
X45561190Y-73112380D01*
X45465952Y-73255238D01*
X45370714Y-73350476D01*
X45275476Y-73398095D01*
D11*
X40635000Y-24070000D02*
X43235000Y-24070000D01*
X38035000Y-74990000D02*
X43235000Y-74990000D01*
X38035000Y-26670000D02*
X40635000Y-26670000D01*
X38035000Y-25400000D02*
X38035000Y-24070000D01*
X40635000Y-26670000D02*
X40635000Y-24070000D01*
X43235000Y-24070000D02*
X43235000Y-74990000D01*
X38035000Y-26670000D02*
X38035000Y-74990000D01*
X38035000Y-24070000D02*
X39365000Y-24070000D01*
%LPC*%
D12*
X39365000Y-25400000D03*
D13*
X41905000Y-25400000D03*
X39365000Y-27940000D03*
X41905000Y-27940000D03*
X39365000Y-30480000D03*
X41905000Y-30480000D03*
X39365000Y-33020000D03*
X41905000Y-33020000D03*
X39365000Y-35560000D03*
X41905000Y-35560000D03*
X39365000Y-38100000D03*
X41905000Y-38100000D03*
X39365000Y-40640000D03*
X41905000Y-40640000D03*
X39365000Y-43180000D03*
X41905000Y-43180000D03*
X39365000Y-45720000D03*
X41905000Y-45720000D03*
X39365000Y-48260000D03*
X41905000Y-48260000D03*
X39365000Y-50800000D03*
X41905000Y-50800000D03*
X39365000Y-53340000D03*
X41905000Y-53340000D03*
X39365000Y-55880000D03*
X41905000Y-55880000D03*
X39365000Y-58420000D03*
X41905000Y-58420000D03*
X39365000Y-60960000D03*
X41905000Y-60960000D03*
X39365000Y-63500000D03*
X41905000Y-63500000D03*
X39365000Y-66040000D03*
X41905000Y-66040000D03*
X39365000Y-68580000D03*
X41905000Y-68580000D03*
X39365000Y-71120000D03*
X41905000Y-71120000D03*
X39365000Y-73660000D03*
X41905000Y-73660000D03*
D14*
X33015000Y-25400000D03*
D15*
X33015000Y-27940000D03*
X33015000Y-30480000D03*
X33015000Y-33020000D03*
X33015000Y-35560000D03*
X33015000Y-38100000D03*
X33015000Y-40640000D03*
X33015000Y-43180000D03*
X33015000Y-45720000D03*
X33015000Y-48260000D03*
X33015000Y-50800000D03*
X33015000Y-53340000D03*
X33015000Y-55880000D03*
X33015000Y-58420000D03*
X33015000Y-60960000D03*
X33015000Y-63500000D03*
X33015000Y-66040000D03*
X33015000Y-68580000D03*
X33015000Y-71120000D03*
X33015000Y-73660000D03*
X48255000Y-73660000D03*
X48255000Y-71120000D03*
X48255000Y-68580000D03*
X48255000Y-66040000D03*
X48255000Y-63500000D03*
X48255000Y-60960000D03*
X48255000Y-58420000D03*
X48255000Y-55880000D03*
X48255000Y-53340000D03*
X48255000Y-50800000D03*
X48255000Y-48260000D03*
X48255000Y-45720000D03*
X48255000Y-43180000D03*
X48255000Y-40640000D03*
X48255000Y-38100000D03*
X48255000Y-35560000D03*
X48255000Y-33020000D03*
X48255000Y-30480000D03*
X48255000Y-27940000D03*
X48255000Y-25400000D03*
M02*
